<?xml version="1.0" encoding="iso-8859-1"?>
<!-- Generator: Adobe Illustrator 19.0.0, SVG Export Plug-In . SVG Version: 6.00 Build 0)  -->
<svg version="1.1" id="Layer_1" xmlns="http://www.w3.org/2000/svg" xmlns:xlink="http://www.w3.org/1999/xlink" x="0px" y="0px"
	 viewBox="0 0 512 512" style="enable-background:new 0 0 512 512;" xml:space="preserve">
<g>
	<path style="fill:#E6EEF4;" d="M423.724,0H88.276c-9.754,0-17.655,7.901-17.655,17.655v476.69c0,9.754,7.901,17.655,17.655,17.655
		h335.448c9.754,0,17.655-7.901,17.655-17.655V17.655C441.379,7.901,433.479,0,423.724,0"/>
	<g>
		<path style="fill:#D71E00;" d="M406.069,485.517c4.875,0,8.828-3.952,8.828-8.828V35.31c0-4.875-3.952-8.828-8.828-8.828H105.931
			c-4.875,0-8.828,3.952-8.828,8.828V476.69c0,4.875,3.952,8.828,8.828,8.828H406.069z M114.759,476.69V35.31l-8.828,8.828h300.138
			l-8.828-8.828V476.69l8.828-8.828H105.931L114.759,476.69z"/>
		<path style="fill:#D71E00;" d="M99.691,104.376c-3.447,3.447-3.447,9.037,0,12.484c3.447,3.447,9.037,3.447,12.484,0
			l75.308-75.308c3.447-3.447,3.447-9.037,0-12.484s-9.037-3.447-12.484,0L99.691,104.376z"/>
		<path style="fill:#D71E00;" d="M262.383,41.557c3.447-3.447,3.447-9.037,0-12.484c-3.447-3.447-9.037-3.447-12.484,0
			l-150.21,150.21c-3.447,3.447-3.447,9.037,0,12.484c3.447,3.447,9.037,3.447,12.484,0L262.383,41.557z"/>
		<path style="fill:#D71E00;" d="M337.294,41.551c3.447-3.447,3.447-9.037,0-12.484s-9.037-3.447-12.484,0L99.689,254.188
			c-3.447,3.447-3.447,9.037,0,12.484s9.037,3.447,12.484,0L337.294,41.551z"/>
		<path style="fill:#D71E00;" d="M412.196,41.553c3.447-3.447,3.447-9.037,0-12.484c-3.447-3.447-9.037-3.447-12.484,0
			L99.689,329.092c-3.447,3.447-3.447,9.037,0,12.484s9.037,3.447,12.484,0L412.196,41.553z"/>
		<path style="fill:#D71E00;" d="M412.311,116.342c3.447-3.447,3.447-9.037,0-12.484c-3.447-3.447-9.037-3.447-12.484,0
			L99.689,403.996c-3.447,3.447-3.447,9.037,0,12.484c3.447,3.447,9.037,3.447,12.484,0L412.311,116.342z"/>
		<path style="fill:#D71E00;" d="M412.315,191.244c3.447-3.447,3.447-9.037,0-12.484s-9.037-3.447-12.484,0L114.797,463.793
			c-3.447,3.447-3.447,9.037,0,12.484c3.447,3.447,9.037,3.447,12.484,0L412.315,191.244z"/>
		<path style="fill:#D71E00;" d="M183.048,470.447c-3.447,3.447-3.447,9.037,0,12.484s9.037,3.447,12.484,0l216.779-216.779
			c3.447-3.447,3.447-9.037,0-12.484c-3.447-3.447-9.037-3.447-12.484,0L183.048,470.447z"/>
		<path style="fill:#D71E00;" d="M257.95,470.449c-3.447,3.447-3.447,9.037,0,12.484s9.037,3.447,12.484,0l141.877-141.877
			c3.447-3.447,3.447-9.037,0-12.484c-3.447-3.447-9.037-3.447-12.484,0L257.95,470.449z"/>
		<path style="fill:#D71E00;" d="M412.315,415.957c3.447-3.447,3.447-9.037,0-12.484c-3.447-3.447-9.037-3.447-12.484,0
			l-66.975,66.975c-3.447,3.447-3.447,9.037,0,12.484c3.447,3.447,9.037,3.447,12.484,0L412.315,415.957z"/>
	</g>
</g>
<g>
</g>
<g>
</g>
<g>
</g>
<g>
</g>
<g>
</g>
<g>
</g>
<g>
</g>
<g>
</g>
<g>
</g>
<g>
</g>
<g>
</g>
<g>
</g>
<g>
</g>
<g>
</g>
<g>
</g>
</svg>
