<?xml version="1.0" encoding="iso-8859-1"?>
<!-- Generator: Adobe Illustrator 19.0.0, SVG Export Plug-In . SVG Version: 6.00 Build 0)  -->
<svg version="1.1" id="Layer_1" xmlns="http://www.w3.org/2000/svg" xmlns:xlink="http://www.w3.org/1999/xlink" x="0px" y="0px"
	 viewBox="0 0 512.004 512.004" style="enable-background:new 0 0 512.004 512.004;" xml:space="preserve">
<path style="fill:#DAE1E5;" d="M163.164,493.763V70.535c0-9.743,7.9-17.634,17.634-17.634h170.808l-13.878-39.828
	c-2.522-9.408-12.185-14.989-21.593-12.468L18.041,68.525C8.633,71.047,3.051,80.71,5.573,90.118L115.118,498.93
	c2.513,9.408,12.185,14.989,21.593,12.468l29.406-7.883C164.257,500.72,163.164,497.37,163.164,493.763"/>
<g>
	<path style="fill:#D71E00;" d="M97.872,331.156c15.227,55.928,22.07,81.172,30.323,111.979c1.261,4.7,6.093,7.495,10.801,6.234
		c4.7-1.261,7.495-6.093,6.234-10.801c-8.262-30.834-15.113-56.095-30.217-111.591c-15.36-56.404-22.008-80.925-30.208-111.521
		c-1.261-4.7-6.093-7.495-10.801-6.234c-4.7,1.261-7.495,6.093-6.234,10.801C75.979,250.663,82.627,275.193,97.872,331.156z"/>
	<path style="fill:#D71E00;" d="M137.197,142.052L84.875,83.047c-4.823-5.44-13.781-3.033-15.236,4.082L53.83,164.395
		c-0.979,4.77,2.099,9.426,6.869,10.404s9.426-2.099,10.404-6.869l3.836-18.754c0.503-0.044,0.988,0.044,1.49-0.097l34.07-9.126
		c0.335-0.088,0.573-0.317,0.882-0.441l12.617,14.231c3.227,3.642,8.8,3.977,12.45,0.749
		C140.098,151.266,140.424,145.694,137.197,142.052z M78.827,130.184l4.55-22.246l15.069,16.991L78.827,130.184z"/>
</g>
<path style="fill:#E6EEF4;" d="M489.402,52.901H180.798c-9.743,0-17.634,7.891-17.634,17.634v423.228
	c0,9.743,7.891,17.634,17.634,17.634h308.604c9.743,0,17.634-7.891,17.634-17.634V70.535
	C507.036,60.792,499.145,52.901,489.402,52.901"/>
<path d="M480.585,88.17c0-4.867-3.95-8.817-8.817-8.817h-158.71c-4.867,0-8.817,3.95-8.817,8.817s3.95,8.817,8.817,8.817h158.71
	l-8.817-8.817v263.98c0,4.867,3.95,8.817,8.817,8.817s8.817-3.95,8.817-8.817V88.17z"/>
<path d="M189.615,476.631c0,4.876,3.959,8.835,8.844,8.817l176.345-0.503c4.867-0.018,8.808-3.977,8.791-8.844
	c-0.018-4.867-3.977-8.808-8.844-8.791l-176.345,0.503l8.844,8.817V212.114c0-4.867-3.95-8.817-8.817-8.817s-8.817,3.95-8.817,8.817
	L189.615,476.631L189.615,476.631z"/>
<path d="M357.17,344.161c-0.503-0.326-1.085,0.168-0.864,0.732l14.619,37.429c1.287,2.583-0.591,5.634-3.483,5.634h-65.212
	c-2.892,0-4.77-3.051-3.474-5.634l12.177-37.517c0.185-0.564-0.423-1.014-0.908-0.688c-7.345,4.964-15.721,8.694-24.891,8.694
	c-28.444,0-53.124-23.886-51.343-52.692c1.005-16.197,11.313-30.093,25.059-38.717c13.79-8.65,25.138-9.337,36.574-6.569
	c-7.309-8.659-10.29-19.83-10.29-32.042c0-30.931,28.25-55.267,60.354-48.609c19.125,3.968,34.449,19.627,38.126,38.805
	c3.06,15.986,0.397,30.922-8.835,41.847c11.515-2.795,22.449-2.072,36.354,6.763c13.676,8.676,23.948,22.537,24.891,38.708
	c1.666,28.727-23.092,52.507-51.466,52.507C375.545,352.811,364.708,349.011,357.17,344.161"/>
<path d="M189.615,176.342c0,4.867,3.95,8.817,8.817,8.817c4.867,0,8.817-3.95,8.817-8.817V88.17c0-4.867-3.95-8.817-8.817-8.817
	c-4.867,0-8.817,3.95-8.817,8.817V176.342z"/>
<path d="M249.291,93.813c3.121-3.739,2.61-9.302-1.129-12.415c-3.739-3.121-9.302-2.61-12.415,1.129l-44.086,52.903
	c-3.121,3.739-2.61,9.302,1.129,12.415c3.739,3.121,9.302,2.61,12.415-1.129L249.291,93.813z"/>
<path d="M223.403,118.545c-2.698-4.056-8.174-5.149-12.23-2.442c-4.056,2.698-5.149,8.174-2.442,12.23L244,181.236
	c2.698,4.056,8.174,5.149,12.23,2.442c4.056-2.698,5.149-8.174,2.442-12.23L223.403,118.545z"/>
<path d="M480.585,387.956c0-4.867-3.95-8.817-8.817-8.817s-8.817,3.95-8.817,8.817v88.172c0,4.867,3.95,8.817,8.817,8.817
	s8.817-3.95,8.817-8.817V387.956z"/>
<path d="M420.909,470.486c-3.121,3.738-2.61,9.302,1.129,12.415c3.738,3.121,9.302,2.61,12.415-1.129l44.086-52.904
	c3.121-3.738,2.61-9.302-1.129-12.415c-3.739-3.121-9.302-2.61-12.415,1.129L420.909,470.486z"/>
<path d="M446.797,445.745c2.698,4.056,8.174,5.149,12.23,2.442c4.056-2.698,5.149-8.174,2.442-12.23L426.2,383.054
	c-2.698-4.056-8.174-5.149-12.23-2.442c-4.056,2.698-5.149,8.174-2.442,12.23L446.797,445.745z"/>
<g>
</g>
<g>
</g>
<g>
</g>
<g>
</g>
<g>
</g>
<g>
</g>
<g>
</g>
<g>
</g>
<g>
</g>
<g>
</g>
<g>
</g>
<g>
</g>
<g>
</g>
<g>
</g>
<g>
</g>
</svg>
