<?xml version="1.0" encoding="iso-8859-1"?>
<!-- Generator: Adobe Illustrator 19.0.0, SVG Export Plug-In . SVG Version: 6.00 Build 0)  -->
<svg version="1.1" id="Layer_1" xmlns="http://www.w3.org/2000/svg" xmlns:xlink="http://www.w3.org/1999/xlink" x="0px" y="0px"
	 viewBox="0 0 512 512" style="enable-background:new 0 0 512 512;" xml:space="preserve">
<g>
	<path style="fill:#E6EEF4;" d="M423.724,0H88.276c-9.754,0-17.655,7.901-17.655,17.655v476.69c0,9.754,7.901,17.655,17.655,17.655
		h335.448c9.754,0,17.655-7.901,17.655-17.655V17.655C441.379,7.901,433.479,0,423.724,0"/>
	<g>
		<polygon style="fill:#D71E00;" points="256,176.552 150.069,308.966 256,441.379 361.931,308.966 		"/>
		<path style="fill:#D71E00;" d="M97.103,141.241c0,4.875,3.952,8.828,8.828,8.828c4.875,0,8.828-3.952,8.828-8.828V35.31
			c0-4.875-3.952-8.828-8.828-8.828c-4.875,0-8.828,3.952-8.828,8.828V141.241z"/>
		<path style="fill:#D71E00;" d="M165.599,41.055c3.173-3.702,2.744-9.274-0.957-12.447s-9.274-2.744-12.447,0.957L99.229,91.359
			c-3.173,3.702-2.744,9.274,0.957,12.447c3.702,3.173,9.274,2.744,12.447-0.957L165.599,41.055z"/>
		<path style="fill:#D71E00;" d="M130.77,74.317c-2.834-3.967-8.347-4.886-12.314-2.052c-3.967,2.834-4.886,8.347-2.052,12.314
			l44.138,61.793c2.834,3.967,8.347,4.886,12.314,2.052c3.967-2.834,4.886-8.347,2.052-12.314L130.77,74.317z"/>
	</g>
</g>
</svg>
