<?xml version="1.0" encoding="iso-8859-1"?>
<!-- Generator: Adobe Illustrator 19.0.0, SVG Export Plug-In . SVG Version: 6.00 Build 0)  -->
<svg version="1.1" id="Layer_1" xmlns="http://www.w3.org/2000/svg" xmlns:xlink="http://www.w3.org/1999/xlink" x="0px" y="0px"
	 viewBox="0 0 512 512" style="enable-background:new 0 0 512 512;" xml:space="preserve">
<g>
	<path style="fill:#E6EEF4;" d="M423.724,0H88.276c-9.754,0-17.655,7.901-17.655,17.655v476.69c0,9.754,7.901,17.655,17.655,17.655
		h335.448c9.754,0,17.655-7.901,17.655-17.655V17.655C441.379,7.901,433.479,0,423.724,0"/>
	<g>
		<polygon style="fill:#D71E00;" points="256,176.552 150.069,308.966 256,441.379 361.931,308.966 		"/>
		<path style="fill:#D71E00;" d="M97.103,141.241c0,4.875,3.952,8.828,8.828,8.828c4.875,0,8.828-3.952,8.828-8.828V35.31
			c0-4.875-3.952-8.828-8.828-8.828c-4.875,0-8.828,3.952-8.828,8.828V141.241z"/>
		<path style="fill:#D71E00;" d="M132.414,61.793v52.966c0,19.441,15.869,35.31,35.31,35.31s35.31-15.869,35.31-35.31V61.793
			c0-19.441-15.869-35.31-35.31-35.31S132.414,42.352,132.414,61.793z M185.379,61.793v52.966c0,9.69-7.965,17.655-17.655,17.655
			c-9.69,0-17.655-7.965-17.655-17.655V61.793c0-9.69,7.965-17.655,17.655-17.655C177.414,44.138,185.379,52.103,185.379,61.793z"/>
	</g>
</g>
</svg>
