<?xml version="1.0" encoding="iso-8859-1"?>
<!-- Generator: Adobe Illustrator 19.0.0, SVG Export Plug-In . SVG Version: 6.00 Build 0)  -->
<svg version="1.1" id="Layer_1" xmlns="http://www.w3.org/2000/svg" xmlns:xlink="http://www.w3.org/1999/xlink" x="0px" y="0px"
	 viewBox="0 0 512 512" style="enable-background:new 0 0 512 512;" xml:space="preserve">
<g>
	<path style="fill:#E6EEF4;" d="M423.724,0H88.276c-9.754,0-17.655,7.901-17.655,17.655v476.69c0,9.754,7.901,17.655,17.655,17.655
		h335.448c9.754,0,17.655-7.901,17.655-17.655V17.655C441.379,7.901,433.479,0,423.724,0"/>
	<g>
		<polygon style="fill:#D71E00;" points="256,176.552 150.069,308.966 256,441.379 361.931,308.966 		"/>
		<path style="fill:#D71E00;" d="M149.616,32.519c-2.683-8.048-14.066-8.048-16.749,0L97.556,138.45
			c-1.542,4.625,0.958,9.624,5.583,11.166c4.625,1.542,9.624-0.958,11.166-5.583l35.31-105.931h-16.749l35.31,105.931
			c1.542,4.625,6.541,7.125,11.166,5.583c4.625-1.542,7.125-6.541,5.583-11.166L149.616,32.519z"/>
		<path style="fill:#D71E00;" d="M158.897,114.759c4.875,0,8.828-3.952,8.828-8.828c0-4.875-3.952-8.828-8.828-8.828h-35.31
			c-4.875,0-8.828,3.952-8.828,8.828c0,4.875,3.952,8.828,8.828,8.828H158.897z"/>
	</g>
</g>
</svg>
