<?xml version="1.0" encoding="iso-8859-1"?>
<!-- Generator: Adobe Illustrator 19.0.0, SVG Export Plug-In . SVG Version: 6.00 Build 0)  -->
<svg version="1.1" id="Layer_1" xmlns="http://www.w3.org/2000/svg" xmlns:xlink="http://www.w3.org/1999/xlink" x="0px" y="0px"
	 viewBox="0 0 512 512" style="enable-background:new 0 0 512 512;" xml:space="preserve">
<g>
	<path style="fill:#E6EEF4;" d="M423.724,0H88.276c-9.754,0-17.655,7.901-17.655,17.655v476.69c0,9.754,7.901,17.655,17.655,17.655
		h335.448c9.754,0,17.655-7.901,17.655-17.655V17.655C441.379,7.901,433.479,0,423.724,0"/>
	<g>
		<path d="M97.103,141.241c0,4.875,3.952,8.828,8.828,8.828c4.875,0,8.828-3.952,8.828-8.828V35.31c0-4.875-3.952-8.828-8.828-8.828
			c-4.875,0-8.828,3.952-8.828,8.828V141.241z"/>
		<path d="M132.414,61.793v52.966c0,19.441,15.869,35.31,35.31,35.31s35.31-15.869,35.31-35.31V61.793
			c0-19.441-15.869-35.31-35.31-35.31S132.414,42.352,132.414,61.793z M185.379,61.793v52.966c0,9.69-7.965,17.655-17.655,17.655
			c-9.69,0-17.655-7.965-17.655-17.655V61.793c0-9.69,7.965-17.655,17.655-17.655C177.414,44.138,185.379,52.103,185.379,61.793z"/>
		<path d="M282.483,361.931L282.483,361.931c0,0,44.323,44.323,79.448-8.828c18.282-27.666,5.888-54.616-13.603-73.242
			l-83.906-82.635c-4.723-4.025-11.979-4.025-16.711,0l-85.124,82.635c-16.746,17.523-31.011,45.506-12.518,73.242
			c35.31,52.966,79.448,8.828,79.448,8.828c0,22.625-6.444,51.703-8.324,59.683c-0.256,1.112,0.6,2.11,1.739,2.11h66.145
			c1.139,0,1.986-0.997,1.73-2.101C288.936,413.617,282.483,384.415,282.483,361.931"/>
		<path d="M114.759,35.31c0-4.875-3.952-8.828-8.828-8.828c-4.875,0-8.828,3.952-8.828,8.828v8.828c0,4.875,3.952,8.828,8.828,8.828
			c4.875,0,8.828-3.952,8.828-8.828V35.31z"/>
	</g>
</g>
</svg>
